<mxfile host="app.diagrams.net" agent="Mozilla/5.0 (Windows NT 10.0; Win64; x64) AppleWebKit/537.36 (KHTML, like Gecko) Chrome/136.0.0.0 Safari/537.36 Edg/136.0.0.0" version="27.0.6">
  <diagram name="Page-1" id="lN5oX9XPWasNmGCeiau4">
    <mxGraphModel dx="1058" dy="652" grid="1" gridSize="10" guides="1" tooltips="1" connect="1" arrows="1" fold="1" page="1" pageScale="1" pageWidth="827" pageHeight="1169" math="0" shadow="0">
      <root>
        <mxCell id="0" />
        <mxCell id="1" parent="0" />
        <mxCell id="MJ7YMQTuTzB0o4oYYbNs-1" value="&#xa;Diagramme de cas d’usage – Gestion des tâches&#xa;&#xa;" style="rounded=1;whiteSpace=wrap;html=1;" parent="1" vertex="1">
          <mxGeometry x="440" y="60" width="320" height="40" as="geometry" />
        </mxCell>
        <mxCell id="MJ7YMQTuTzB0o4oYYbNs-15" value="" style="edgeStyle=orthogonalEdgeStyle;rounded=0;orthogonalLoop=1;jettySize=auto;html=1;strokeWidth=2;" parent="1" source="MJ7YMQTuTzB0o4oYYbNs-2" target="MJ7YMQTuTzB0o4oYYbNs-4" edge="1">
          <mxGeometry relative="1" as="geometry" />
        </mxCell>
        <mxCell id="MJ7YMQTuTzB0o4oYYbNs-2" value="Eleve" style="ellipse;whiteSpace=wrap;html=1;fillColor=#d5e8d4;strokeColor=#82b366;" parent="1" vertex="1">
          <mxGeometry x="100" y="160" width="120" height="80" as="geometry" />
        </mxCell>
        <mxCell id="MJ7YMQTuTzB0o4oYYbNs-20" value="" style="edgeStyle=orthogonalEdgeStyle;rounded=0;orthogonalLoop=1;jettySize=auto;html=1;strokeWidth=2;" parent="1" source="MJ7YMQTuTzB0o4oYYbNs-3" target="MJ7YMQTuTzB0o4oYYbNs-6" edge="1">
          <mxGeometry relative="1" as="geometry" />
        </mxCell>
        <mxCell id="MJ7YMQTuTzB0o4oYYbNs-3" value="Mentor/Bénévole" style="ellipse;whiteSpace=wrap;html=1;fillColor=#d5e8d4;strokeColor=#82b366;" parent="1" vertex="1">
          <mxGeometry x="560" y="160" width="120" height="80" as="geometry" />
        </mxCell>
        <mxCell id="MJ7YMQTuTzB0o4oYYbNs-16" value="" style="edgeStyle=orthogonalEdgeStyle;rounded=0;orthogonalLoop=1;jettySize=auto;html=1;strokeWidth=2;" parent="1" source="MJ7YMQTuTzB0o4oYYbNs-4" target="MJ7YMQTuTzB0o4oYYbNs-12" edge="1">
          <mxGeometry relative="1" as="geometry" />
        </mxCell>
        <mxCell id="MJ7YMQTuTzB0o4oYYbNs-4" value="Créer un&amp;nbsp;&lt;span style=&quot;color: rgb(39, 26, 56); font-family: Inter; font-size: 16px; text-align: left; background-color: rgb(255, 255, 255);&quot;&gt;tâches&lt;/span&gt;" style="shape=hexagon;perimeter=hexagonPerimeter2;whiteSpace=wrap;html=1;fixedSize=1;fillColor=#ffe6cc;strokeColor=#d79b00;" parent="1" vertex="1">
          <mxGeometry x="100" y="280" width="120" height="80" as="geometry" />
        </mxCell>
        <mxCell id="MJ7YMQTuTzB0o4oYYbNs-18" value="" style="edgeStyle=orthogonalEdgeStyle;rounded=0;orthogonalLoop=1;jettySize=auto;html=1;strokeWidth=2;" parent="1" source="MJ7YMQTuTzB0o4oYYbNs-5" target="MJ7YMQTuTzB0o4oYYbNs-9" edge="1">
          <mxGeometry relative="1" as="geometry" />
        </mxCell>
        <mxCell id="MJ7YMQTuTzB0o4oYYbNs-31" value="" style="edgeStyle=orthogonalEdgeStyle;rounded=0;orthogonalLoop=1;jettySize=auto;html=1;strokeWidth=2;" parent="1" source="MJ7YMQTuTzB0o4oYYbNs-5" target="MJ7YMQTuTzB0o4oYYbNs-28" edge="1">
          <mxGeometry relative="1" as="geometry" />
        </mxCell>
        <mxCell id="MJ7YMQTuTzB0o4oYYbNs-5" value="Consulter liste de&amp;nbsp;&lt;span style=&quot;color: rgb(39, 26, 56); font-family: Inter; font-size: 16px; text-align: left; background-color: rgb(255, 255, 255);&quot;&gt;tâches&lt;/span&gt;(s)" style="shape=hexagon;perimeter=hexagonPerimeter2;whiteSpace=wrap;html=1;fixedSize=1;fillColor=#ffe6cc;strokeColor=#d79b00;" parent="1" vertex="1">
          <mxGeometry x="100" y="520" width="120" height="80" as="geometry" />
        </mxCell>
        <mxCell id="MJ7YMQTuTzB0o4oYYbNs-21" value="" style="edgeStyle=orthogonalEdgeStyle;rounded=0;orthogonalLoop=1;jettySize=auto;html=1;strokeWidth=2;" parent="1" source="MJ7YMQTuTzB0o4oYYbNs-6" target="MJ7YMQTuTzB0o4oYYbNs-14" edge="1">
          <mxGeometry relative="1" as="geometry" />
        </mxCell>
        <mxCell id="MJ7YMQTuTzB0o4oYYbNs-6" value="Créer une&amp;nbsp;&lt;span style=&quot;color: rgb(39, 26, 56); font-family: Inter; font-size: 16px; text-align: left; background-color: rgb(255, 255, 255);&quot;&gt;tâches&lt;/span&gt;" style="shape=hexagon;perimeter=hexagonPerimeter2;whiteSpace=wrap;html=1;fixedSize=1;fillColor=#e1d5e7;strokeColor=#9673a6;" parent="1" vertex="1">
          <mxGeometry x="560" y="280" width="120" height="80" as="geometry" />
        </mxCell>
        <mxCell id="MJ7YMQTuTzB0o4oYYbNs-23" value="" style="edgeStyle=orthogonalEdgeStyle;rounded=0;orthogonalLoop=1;jettySize=auto;html=1;strokeWidth=2;" parent="1" source="MJ7YMQTuTzB0o4oYYbNs-7" target="MJ7YMQTuTzB0o4oYYbNs-8" edge="1">
          <mxGeometry relative="1" as="geometry" />
        </mxCell>
        <mxCell id="MJ7YMQTuTzB0o4oYYbNs-30" value="" style="edgeStyle=orthogonalEdgeStyle;rounded=0;orthogonalLoop=1;jettySize=auto;html=1;strokeWidth=2;" parent="1" source="MJ7YMQTuTzB0o4oYYbNs-7" target="MJ7YMQTuTzB0o4oYYbNs-29" edge="1">
          <mxGeometry relative="1" as="geometry" />
        </mxCell>
        <mxCell id="MJ7YMQTuTzB0o4oYYbNs-7" value="Consulter liste de&amp;nbsp;&lt;span style=&quot;color: rgb(39, 26, 56); font-family: Inter; font-size: 16px; text-align: left; background-color: rgb(255, 255, 255);&quot;&gt;tâches&lt;/span&gt;(s)" style="shape=hexagon;perimeter=hexagonPerimeter2;whiteSpace=wrap;html=1;fixedSize=1;fillColor=#e1d5e7;strokeColor=#9673a6;" parent="1" vertex="1">
          <mxGeometry x="560" y="520" width="120" height="80" as="geometry" />
        </mxCell>
        <mxCell id="MJ7YMQTuTzB0o4oYYbNs-24" value="" style="edgeStyle=orthogonalEdgeStyle;rounded=0;orthogonalLoop=1;jettySize=auto;html=1;strokeWidth=2;" parent="1" source="MJ7YMQTuTzB0o4oYYbNs-8" target="MJ7YMQTuTzB0o4oYYbNs-11" edge="1">
          <mxGeometry relative="1" as="geometry" />
        </mxCell>
        <mxCell id="MJ7YMQTuTzB0o4oYYbNs-8" value="Consulter&amp;nbsp;&lt;div&gt;une&amp;nbsp;&lt;span style=&quot;background-color: rgb(255, 255, 255); color: rgb(39, 26, 56); font-family: Inter; font-size: 16px; text-align: left;&quot;&gt;tâches&lt;/span&gt;&lt;/div&gt;" style="shape=hexagon;perimeter=hexagonPerimeter2;whiteSpace=wrap;html=1;fixedSize=1;fillColor=#e1d5e7;strokeColor=#9673a6;" parent="1" vertex="1">
          <mxGeometry x="560" y="640" width="120" height="80" as="geometry" />
        </mxCell>
        <mxCell id="MJ7YMQTuTzB0o4oYYbNs-19" value="" style="edgeStyle=orthogonalEdgeStyle;rounded=0;orthogonalLoop=1;jettySize=auto;html=1;strokeWidth=2;" parent="1" source="MJ7YMQTuTzB0o4oYYbNs-9" target="MJ7YMQTuTzB0o4oYYbNs-10" edge="1">
          <mxGeometry relative="1" as="geometry" />
        </mxCell>
        <mxCell id="MJ7YMQTuTzB0o4oYYbNs-9" value="Consulter&amp;nbsp;&lt;div&gt;une&amp;nbsp;&lt;span style=&quot;background-color: rgb(255, 255, 255); color: rgb(39, 26, 56); font-family: Inter; font-size: 16px; text-align: left;&quot;&gt;tâches&lt;/span&gt;&lt;/div&gt;" style="shape=hexagon;perimeter=hexagonPerimeter2;whiteSpace=wrap;html=1;fixedSize=1;fillColor=#ffe6cc;strokeColor=#d79b00;" parent="1" vertex="1">
          <mxGeometry x="100" y="640" width="120" height="80" as="geometry" />
        </mxCell>
        <mxCell id="MJ7YMQTuTzB0o4oYYbNs-10" value="Supprimer une&amp;nbsp;&lt;div&gt;&lt;span style=&quot;color: rgb(39, 26, 56); font-family: Inter; font-size: 16px; text-align: left; background-color: rgb(255, 255, 255);&quot;&gt;tâches&lt;/span&gt;&lt;/div&gt;" style="shape=hexagon;perimeter=hexagonPerimeter2;whiteSpace=wrap;html=1;fixedSize=1;fillColor=#ffe6cc;strokeColor=#d79b00;" parent="1" vertex="1">
          <mxGeometry x="100" y="760" width="120" height="80" as="geometry" />
        </mxCell>
        <mxCell id="MJ7YMQTuTzB0o4oYYbNs-11" value="Supprimer une&amp;nbsp;&lt;div&gt;&lt;span style=&quot;color: rgb(39, 26, 56); font-family: Inter; font-size: 16px; text-align: left; background-color: rgb(255, 255, 255);&quot;&gt;tâches&lt;/span&gt;&lt;/div&gt;" style="shape=hexagon;perimeter=hexagonPerimeter2;whiteSpace=wrap;html=1;fixedSize=1;fillColor=#e1d5e7;strokeColor=#9673a6;" parent="1" vertex="1">
          <mxGeometry x="560" y="760" width="120" height="80" as="geometry" />
        </mxCell>
        <mxCell id="MJ7YMQTuTzB0o4oYYbNs-17" value="" style="edgeStyle=orthogonalEdgeStyle;rounded=0;orthogonalLoop=1;jettySize=auto;html=1;strokeWidth=2;" parent="1" source="MJ7YMQTuTzB0o4oYYbNs-12" target="MJ7YMQTuTzB0o4oYYbNs-5" edge="1">
          <mxGeometry relative="1" as="geometry" />
        </mxCell>
        <mxCell id="MJ7YMQTuTzB0o4oYYbNs-12" value="Modifier une&amp;nbsp;&lt;div&gt;&lt;span style=&quot;color: rgb(39, 26, 56); font-family: Inter; font-size: 16px; text-align: left; background-color: rgb(255, 255, 255);&quot;&gt;tâches&lt;/span&gt;&lt;/div&gt;" style="shape=hexagon;perimeter=hexagonPerimeter2;whiteSpace=wrap;html=1;fixedSize=1;fillColor=#ffe6cc;strokeColor=#d79b00;" parent="1" vertex="1">
          <mxGeometry x="100" y="400" width="120" height="80" as="geometry" />
        </mxCell>
        <mxCell id="MJ7YMQTuTzB0o4oYYbNs-22" value="" style="edgeStyle=orthogonalEdgeStyle;rounded=0;orthogonalLoop=1;jettySize=auto;html=1;strokeWidth=2;" parent="1" source="MJ7YMQTuTzB0o4oYYbNs-14" target="MJ7YMQTuTzB0o4oYYbNs-7" edge="1">
          <mxGeometry relative="1" as="geometry" />
        </mxCell>
        <mxCell id="MJ7YMQTuTzB0o4oYYbNs-14" value="Modifier une&amp;nbsp;&lt;div&gt;&lt;span style=&quot;color: rgb(39, 26, 56); font-family: Inter; font-size: 16px; text-align: left; background-color: rgb(255, 255, 255);&quot;&gt;tâches&lt;/span&gt;&lt;/div&gt;" style="shape=hexagon;perimeter=hexagonPerimeter2;whiteSpace=wrap;html=1;fixedSize=1;fillColor=#e1d5e7;strokeColor=#9673a6;" parent="1" vertex="1">
          <mxGeometry x="560" y="400" width="120" height="80" as="geometry" />
        </mxCell>
        <mxCell id="MJ7YMQTuTzB0o4oYYbNs-25" value="" style="endArrow=classic;html=1;rounded=0;strokeWidth=2;entryX=1;entryY=0.5;entryDx=0;entryDy=0;" parent="1" edge="1" target="MJ7YMQTuTzB0o4oYYbNs-4">
          <mxGeometry width="50" height="50" relative="1" as="geometry">
            <mxPoint x="560" y="319.5" as="sourcePoint" />
            <mxPoint x="240" y="319.5" as="targetPoint" />
          </mxGeometry>
        </mxCell>
        <mxCell id="MJ7YMQTuTzB0o4oYYbNs-28" value="Lister/Trier&lt;div&gt;les&amp;nbsp;&lt;span style=&quot;background-color: transparent; color: light-dark(rgb(0, 0, 0), rgb(255, 255, 255));&quot;&gt;&amp;nbsp;&lt;/span&gt;&lt;span style=&quot;color: rgb(39, 26, 56); font-family: Inter; font-size: 16px; text-align: left; background-color: rgb(255, 255, 255);&quot;&gt;tâches&lt;/span&gt;&lt;span style=&quot;background-color: transparent; color: light-dark(rgb(0, 0, 0), rgb(255, 255, 255));&quot;&gt;(s)&lt;/span&gt;&lt;/div&gt;" style="shape=step;perimeter=stepPerimeter;whiteSpace=wrap;html=1;fixedSize=1;fillColor=#ffe6cc;strokeColor=#d79b00;" parent="1" vertex="1">
          <mxGeometry x="240" y="520" width="120" height="80" as="geometry" />
        </mxCell>
        <mxCell id="MJ7YMQTuTzB0o4oYYbNs-29" value="Lister/Trier&lt;div&gt;les&amp;nbsp;&lt;span style=&quot;background-color: transparent; color: light-dark(rgb(0, 0, 0), rgb(255, 255, 255));&quot;&gt;&amp;nbsp;&lt;/span&gt;&lt;span style=&quot;color: rgb(39, 26, 56); font-family: Inter; font-size: 16px; text-align: left; background-color: rgb(255, 255, 255);&quot;&gt;tâches&lt;/span&gt;&lt;span style=&quot;background-color: transparent; color: light-dark(rgb(0, 0, 0), rgb(255, 255, 255));&quot;&gt;(s)&lt;/span&gt;&lt;/div&gt;" style="shape=step;perimeter=stepPerimeter;whiteSpace=wrap;html=1;fixedSize=1;fillColor=#e1d5e7;strokeColor=#9673a6;" parent="1" vertex="1">
          <mxGeometry x="700" y="520" width="120" height="80" as="geometry" />
        </mxCell>
        <mxCell id="J1kCQVl_lPesgUbQBqKq-1" value="" style="endArrow=classic;html=1;rounded=0;exitX=0;exitY=0.5;exitDx=0;exitDy=0;entryX=1;entryY=0.5;entryDx=0;entryDy=0;strokeWidth=2;" edge="1" parent="1" source="MJ7YMQTuTzB0o4oYYbNs-6" target="MJ7YMQTuTzB0o4oYYbNs-12">
          <mxGeometry width="50" height="50" relative="1" as="geometry">
            <mxPoint x="390" y="360" as="sourcePoint" />
            <mxPoint x="440" y="310" as="targetPoint" />
          </mxGeometry>
        </mxCell>
      </root>
    </mxGraphModel>
  </diagram>
</mxfile>
